<svg width="200" height="200" viewBox="0 0 200 200" fill="none" xmlns="http://www.w3.org/2000/svg">
  <defs>
    <linearGradient id="bubbleGradient" x1="30" y1="30" x2="170" y2="170" gradientUnits="userSpaceOnUse">
      <stop stop-color="#3751FF"/>
      <stop offset="1" stop-color="#2B3ED6"/>
    </linearGradient>
  </defs>
  <!-- Outer bubble -->
  <path d="M100 24C56 24 20 54.6 20 92c0 18.8 9 35.7 23.8 47.7l-6 26.3c-0.8 3.4 2.9 6.2 6 4.4l27-15c8.9 2.9 18.5 4.5 28.9 4.5 44 0 80-30.6 80-68S144 24 100 24Z" fill="url(#bubbleGradient)"/>
  <!-- Face area -->
  <rect x="48" y="64" width="104" height="64" rx="12" fill="#F7F8FF"/>
  <!-- Eyes -->
  <path d="M78 104c-6 0-11-4.5-12-10.5-.2-1.2 1-2.2 2.2-1.8 3.5 1.3 7.7 2.1 9.8 2.1 2.2 0 6.3-.8 9.8-2.1 1.2-.5 2.4.6 2.2 1.8-1 6-6 10.5-12 10.5Zm44 0c-6 0-11-4.5-12-10.5-.2-1.2 1-2.2 2.2-1.8 3.5 1.3 7.7 2.1 9.8 2.1 2.2 0 6.3-.8 9.8-2.1 1.2-.5 2.4.6 2.2 1.8-1 6-6 10.5-12 10.5Z" fill="#2B3ED6"/>
  <!-- Smile -->
  <path d="M90 116c4 4 9 6 15 6s11-2 15-6" stroke="#2B3ED6" stroke-width="6" stroke-linecap="round" stroke-linejoin="round"/>
  <!-- Headset -->
  <path d="M46 92c0-30 24.6-54 54-54s54 24 54 54" stroke="#F7F8FF" stroke-width="10" stroke-linecap="round"/>
  <rect x="24" y="86" width="14" height="44" rx="6" fill="#2B3ED6"/>
  <rect x="162" y="86" width="14" height="44" rx="6" fill="#2B3ED6"/>
  <rect x="30" y="110" width="18" height="32" rx="8" fill="#3751FF"/>
  <rect x="152" y="110" width="18" height="32" rx="8" fill="#3751FF"/>
  <!-- Antennas -->
  <rect x="36" y="60" width="8" height="28" rx="4" fill="#2B3ED6"/>
  <rect x="156" y="60" width="8" height="28" rx="4" fill="#2B3ED6"/>
  <!-- Inner face shading -->
  <rect x="54" y="70" width="92" height="52" rx="10" fill="#FFFFFF" opacity="0.7"/>
</svg>

